//// ------------------------------------------------------
//// THIS FILE WAS AUTOMATICALLY GENERATED (DO NOT MODIFY)
//// ------------------------------------------------------

Table member_groups {
  id String [pk]
  community communities [not null]
  communityId String [not null]
  createdAt DateTime [default: `now()`, not null]
  updatedAt DateTime [default: `now()`, not null]
  users users [not null]
  communityMemberships community_memberships [not null]
  pubMemberships pub_memberships [not null]
  stageMemberships stage_memberships [not null]
}

Table community_memberships {
  id String [pk]
  role MemberRole [not null]
  community communities [not null]
  communityId String [not null]
  user users
  userId String
  memberGroup member_groups
  memberGroupId String
  createdAt DateTime [default: `now()`, not null]
  updatedAt DateTime [default: `now()`, not null]
  form forms
  formId String
}

Table pub_memberships {
  id String [pk]
  role MemberRole [not null]
  pub pubs [not null]
  pubId String [not null]
  user users
  userId String
  memberGroup member_groups
  memberGroupId String
  form forms
  formId String
  createdAt DateTime [default: `now()`, not null]
  updatedAt DateTime [default: `now()`, not null]
}

Table stage_memberships {
  id String [pk]
  role MemberRole [not null]
  stage stages [not null]
  stageId String [not null]
  user users
  userId String
  memberGroup member_groups
  memberGroupId String
  form forms
  formId String
  createdAt DateTime [default: `now()`, not null]
  updatedAt DateTime [default: `now()`, not null]
}

Table membership_capabilities {
  role MemberRole [not null]
  type MembershipType [not null]
  capability Capabilities [not null]

  indexes {
    (role, type, capability) [pk]
  }
}

Table invites_history {
  id String [pk]
  createdAt DateTime [default: `now()`, not null]
  operationType OperationType [not null]
  oldRowData Json
  newRowData Json
  inviteId String
  user users
  userId String
  apiAccessToken api_access_tokens
  apiAccessTokenId String
  actionRun action_runs
  actionRunId String
  other String
}

Table pub_values_history {
  id String [pk]
  createdAt DateTime [default: `now()`, not null]
  operationType OperationType [not null]
  oldRowData Json
  newRowData Json
  pubValueId String
  user users
  userId String
  apiAccessToken api_access_tokens
  apiAccessTokenId String
  actionRun action_runs
  actionRunId String
  other String
}

Table users {
  id String [pk]
  slug String [unique, not null]
  email String [unique, not null]
  firstName String [not null]
  lastName String
  orcid String
  avatar String
  createdAt DateTime [default: `now()`, not null]
  updatedAt DateTime [default: `now()`, not null]
  isSuperAdmin Boolean [not null, default: false]
  passwordHash String
  isVerified Boolean [not null, default: false]
  isProvisional Boolean [not null, default: false, note: 'Indicates whether a user is provisional, meaning they were added through an invite and need to accept it to become a full user']
  memberGroups member_groups [not null]
  AuthToken auth_tokens [not null]
  actionRuns action_runs [not null]
  ApiAccessToken api_access_tokens [not null]
  Session sessions [not null]
  communityMemberships community_memberships [not null]
  pubMemberships pub_memberships [not null]
  stageMemberships stage_memberships [not null]
  PubValueHistory pub_values_history [not null]
  InvitedUser invites [not null]
  InvitedByUser invites [not null]
  InviteHistory invites_history [not null]
  automationRuns automation_runs [not null]
}

Table sessions {
  id String [pk]
  userId String [not null]
  user users [not null]
  expiresAt DateTime [not null]
  type AuthTokenType [not null, default: 'generic', note: 'With what type of token is this session created? Used for determining on a page-by-page basis whether to allow a certain session to access it. For instance, a verify email token/session should not allow you to access the password reset page.']
  createdAt DateTime [default: `now()`, not null]
  updatedAt DateTime [default: `now()`, not null]
}

Table auth_tokens {
  id String [pk]
  hash String [not null]
  createdAt DateTime [default: `now()`, not null]
  updatedAt DateTime [default: `now()`, not null]
  expiresAt DateTime [not null]
  isUsed Boolean [not null, default: false]
  user users [not null]
  userId String [not null]
  type AuthTokenType [not null, default: 'generic']
}

Table communities {
  id String [pk]
  name String [not null]
  slug String [unique, not null]
  avatar String
  createdAt DateTime [default: `now()`, not null]
  updatedAt DateTime [default: `now()`, not null]
  pubTypes pub_types [not null]
  pubs pubs [not null]
  memberGroups member_groups [not null]
  stages stages [not null]
  APIAccessToken api_access_tokens [not null]
  Form forms [not null]
  pubFields pub_fields [not null]
  members community_memberships [not null]
  Invite invites [not null]
  ActionConfigDefault action_config_defaults [not null]
  automations automations [not null]
}

Table pubs {
  id String [pk]
  valuesBlob Json
  pubType pub_types [not null]
  pubTypeId String [not null]
  community communities [not null]
  communityId String [not null]
  createdAt DateTime [default: `now()`, not null]
  updatedAt DateTime [default: `now()`, not null]
  title String
  values pub_values [not null]
  stages PubsInStages [not null]
  actionRuns action_runs [not null]
  relatedValues pub_values [not null]
  members pub_memberships [not null]
  Invite invites [not null]
  automationRuns automation_runs [not null]
}

Table pub_fields {
  id String [pk]
  name String [not null]
  slug String [unique, not null]
  createdAt DateTime [default: `now()`, not null]
  updatedAt DateTime [default: `now()`, not null]
  schema PubFieldSchema
  schemaName CoreSchemaType
  pubFieldSchemaId String
  isArchived Boolean [not null, default: false]
  community communities [not null]
  communityId String [not null]
  isRelation Boolean [not null, default: false]
  values pub_values [not null]
  pubTypes _PubFieldToPubType [not null]
  FormInput form_elements [not null]
}

Table PubFieldSchema {
  id String [pk]
  namespace String [not null]
  name String [not null]
  createdAt DateTime [default: `now()`, not null]
  updatedAt DateTime [default: `now()`, not null]
  schema Json [not null, note: '@type(JSONSchemaType<any>, \'ajv\', true, false, true)']
  PubFields pub_fields [not null]

  indexes {
    (name, namespace) [unique]
  }
}

Table pub_values {
  id String [pk]
  lastModifiedBy String [not null, note: '@type(LastModifiedBy, \'../types\', true, false, true)']
  field pub_fields [not null]
  fieldId String [not null]
  value Json
  pub pubs [not null]
  pubId String [not null]
  createdAt DateTime [default: `now()`, not null]
  updatedAt DateTime [default: `now()`, not null]
  relatedPub pubs
  relatedPubId String
  rank String
}

Table pub_types {
  id String [pk]
  name String [not null]
  description String
  community communities [not null]
  communityId String [not null]
  createdAt DateTime [default: `now()`, not null]
  updatedAt DateTime [default: `now()`, not null]
  fields _PubFieldToPubType [not null]
  pubs pubs [not null]
  Form forms [not null]
  formElements form_elements [not null]

  indexes {
    (name, communityId) [unique]
  }
}

Table _PubFieldToPubType {
  A String [not null]
  B String [not null]
  isTitle Boolean [not null, default: false]
  rank String [not null]
  createdAt DateTime [default: `now()`, not null]
  updatedAt DateTime [default: `now()`, not null]
  pubField pub_fields [not null]
  pubType pub_types [not null]

  indexes {
    (A, B) [unique]
  }
}

Table stages {
  id String [pk]
  name String [not null]
  order String [not null]
  community communities [not null]
  communityId String [not null]
  createdAt DateTime [default: `now()`, not null]
  updatedAt DateTime [default: `now()`, not null]
  pubs PubsInStages [not null]
  moveConstraints move_constraint [not null]
  moveConstraintSources move_constraint [not null]
  formElements form_elements [not null]
  members stage_memberships [not null]
  Invite invites [not null]
  automations automations [not null]
}

Table PubsInStages {
  pub pubs [not null]
  pubId String [not null]
  stage stages [not null]
  stageId String [not null]
  createdAt DateTime [default: `now()`, not null]
  updatedAt DateTime [default: `now()`, not null]

  indexes {
    (pubId, stageId) [pk]
  }
}

Table move_constraint {
  stage stages [not null]
  stageId String [not null]
  destination stages [not null]
  destinationId String [not null]
  createdAt DateTime [default: `now()`, not null]
  updatedAt DateTime [default: `now()`, not null]

  indexes {
    (stageId, destinationId) [pk]
  }
}

Table action_instances {
  id String [pk]
  action Action [not null]
  createdAt DateTime [default: `now()`, not null]
  updatedAt DateTime [default: `now()`, not null]
  config Json [note: '@type(BaseActionInstanceConfig, \'../types\', true, false, true)']
  automationId String [not null]
  automation automations [not null]
  runs action_runs [not null]
}

Table action_config_defaults {
  id String [pk]
  community communities [not null]
  communityId String [not null]
  action Action [not null]
  config Json
  createdAt DateTime [default: `now()`, not null]
  updatedAt DateTime [default: `now()`, not null]

  indexes {
    (communityId, action) [unique]
  }
}

Table automation_runs {
  id String [pk]
  automation automations [not null]
  automationId String [not null]
  status ActionRunStatus
  triggerEvent AutomationEvent [not null]
  triggerConfig Json
  sourceUserId String
  sourceUser users
  inputPubId String
  inputPub pubs
  inputJson Json
  createdAt DateTime [default: `now()`, not null]
  updatedAt DateTime [default: `now()`, not null]
  actionRuns action_runs [not null]
  sourceAutomationRunId String
  sourceAutomationRun automation_runs
  sequentialAutomationRuns automation_runs [not null]
}

Table action_runs {
  id String [pk]
  actionInstance action_instances
  actionInstanceId String
  automationRun automation_runs
  automationRunId String
  pub pubs
  pubId String
  json Json
  config Json
  action Action
  event AutomationEvent
  params Json
  status ActionRunStatus [not null]
  result Json [not null]
  user users
  userId String
  createdAt DateTime [default: `now()`, not null]
  updatedAt DateTime [default: `now()`, not null]
  PubValueHistory pub_values_history [not null]
  InvitedByActionRun invites [not null]
  InviteHistory invites_history [not null]
}

Table automations {
  id String [pk]
  name String [not null]
  description String
  icon Json [note: '@type(IconConfig, \'../types\', true, false, true)']
  watchedAutomations automation_triggers [not null]
  stage stages
  stageId String
  community communities [not null]
  communityId String [not null]
  conditionEvaluationTiming ConditionEvaluationTiming
  createdAt DateTime [default: `now()`, not null]
  updatedAt DateTime [default: `now()`, not null]
  AutomationConditionBlock automation_condition_blocks [not null]
  actionInstances action_instances [not null]
  automationRuns automation_runs [not null]
  automationTriggers automation_triggers [not null]
  resolver String
}

Table automation_triggers {
  id String [pk]
  event AutomationEvent [not null]
  config Json
  automation automations [not null]
  automationId String [not null]
  sourceAutomationId String
  sourceAutomation automations
  createdAt DateTime [default: `now()`, not null]
  updatedAt DateTime [default: `now()`, not null]
}

Table automation_condition_blocks {
  id String [pk]
  type AutomationConditionBlockType [not null]
  rank String [not null]
  automationConditionBlockId String
  automationConditionBlock automation_condition_blocks
  automationConditionBlocks automation_condition_blocks [not null]
  automationId String [not null]
  automation automations [not null]
  createdAt DateTime [default: `now()`, not null]
  updatedAt DateTime [default: `now()`, not null]
  AutomationCondition automation_conditions [not null]
}

Table automation_conditions {
  id String [pk]
  automationConditionBlockId String [not null]
  automationConditionBlock automation_condition_blocks [not null]
  type AutomationConditionType [not null]
  expression String [not null]
  rank String [not null]
  createdAt DateTime [default: `now()`, not null]
  updatedAt DateTime [default: `now()`, not null]
}

Table forms {
  id String [pk]
  name String [not null]
  slug String [not null]
  communityId String [not null]
  community communities [not null]
  pubType pub_types [not null]
  pubTypeId String [not null]
  elements form_elements [not null]
  isArchived Boolean [not null, default: false]
  access FormAccessType [not null, default: 'private']
  isDefault Boolean [not null, default: false]
  createdAt DateTime [default: `now()`, not null]
  updatedAt DateTime [default: `now()`, not null]
  inviteForms invite_forms [not null]
  StageMembership stage_memberships [not null]
  CommunityMembership community_memberships [not null]
  PubMembership pub_memberships [not null]

  indexes {
    (name, communityId) [unique]
    (slug, communityId) [unique]
  }
}

Table form_elements {
  id String [pk]
  type ElementType [not null]
  fieldId String
  field pub_fields
  formId String [not null]
  rank String [not null]
  label String
  element StructuralFormElement
  component InputComponent
  config Json
  content String
  required Boolean
  form forms [not null]
  stage stages
  stageId String
  createdAt DateTime [default: `now()`, not null]
  updatedAt DateTime [default: `now()`, not null]
  relatedPubTypes pub_types [not null]

  indexes {
    (type, label, formId) [unique]
    (fieldId, formId) [unique]
  }
}

Table api_access_tokens {
  id String [pk]
  token String [unique, not null]
  name String [not null]
  description String
  communityId String [not null]
  community communities [not null]
  expiration DateTime [not null]
  issuedBy users
  issuedById String
  issuedAt DateTime [default: `now()`, not null]
  updatedAt DateTime [default: `now()`, not null]
  accessRules api_access_permissions [not null]
  logs api_access_logs [not null]
  PubValueHistory pub_values_history [not null]
  InviteHistory invites_history [not null]
  isSiteBuilderToken Boolean [not null, default: false]
}

Table api_access_logs {
  id String [pk]
  accessTokenId String
  accessToken api_access_tokens
  timestamp DateTime [default: `now()`, not null]
  action String [not null]
}

Table api_access_permissions {
  id String [pk]
  apiAccessTokenId String [not null]
  apiAccessToken api_access_tokens [not null]
  scope ApiAccessScope [not null]
  accessType ApiAccessType [not null]
  constraints Json [note: '@type(ApiAccessPermissionConstraints, \'../types\', true, false, true)']
  createdAt DateTime [default: `now()`, not null]
  updatedAt DateTime [default: `now()`, not null]
}

Table invites {
  id String [pk]
  lastModifiedBy String [not null, note: '@type(LastModifiedBy, \'../types\', true, false, true)']
  InvitedUser users [not null]
  userId String [not null]
  token String [unique, not null]
  expiresAt DateTime [not null]
  createdAt DateTime [default: `now()`, not null]
  updatedAt DateTime [default: `now()`, not null]
  community communities [not null]
  communityId String [not null]
  communityRole MemberRole [not null, default: 'contributor']
  Pub pubs
  pubId String
  pubRole MemberRole
  Stage stages
  stageId String
  stageRole MemberRole
  message String
  lastSentAt DateTime
  status InviteStatus [not null, default: 'created']
  InvitedByUser users
  invitedByUserId String
  InvitedByActionRun action_runs
  invitedByActionRunId String
  forms invite_forms [not null]
}

Table invite_forms {
  invite invites [not null]
  inviteId String [not null]
  form forms [not null]
  formId String [not null]
  type MembershipType [not null]
  createdAt DateTime [default: `now()`, not null]
  updatedAt DateTime [default: `now()`, not null]

  indexes {
    (inviteId, formId, type) [pk]
    (inviteId, formId, type) [unique]
  }
}

Table MemberGroupToUser {
  usersId String [ref: > users.id]
  membergroupsId String [ref: > member_groups.id]
}

Table FormElementToPubType {
  formelementsId String [ref: > form_elements.id]
  relatedpubtypesId String [ref: > pub_types.id]
}

Enum Capabilities {
  addCommunity
  addCommunityMember
  addFormMember
  addPubMember
  addStageMember
  archiveForm
  archivePubField
  createApiToken
  createForm
  createPubField
  createPubType
  createPubWithAnyForm
  createPubWithForm
  createRelatedPub
  createStage
  deletePub
  deletePubType
  deleteStage
  editCommunity
  editForm
  editPubField
  editPubType
  editPubWithAnyForm
  editPubWithDefaultForm
  editPubWithForm
  manageMemberGroups
  manageStage
  movePub
  overrideAutomationConditions
  removeCommunityMember
  removeFormMember
  removePubMember
  removeStageMember
  revokeApiToken
  runAction
  seeExtraPubValues
  viewPub
  viewStage
}

Enum MemberRole {
  admin
  editor
  contributor
}

Enum MembershipType {
  community
  stage
  pub
}

Enum AuthTokenType {
  generic
  passwordReset
  signup
  verifyEmail
}

Enum CoreSchemaType {
  Boolean
  DateTime
  Email
  FileUpload
  MemberId
  Null
  Number
  NumericArray
  RichText
  String
  StringArray
  URL
  Vector3
  Color
}

Enum OperationType {
  insert
  update
  delete
}

Enum Action {
  log
  email
  http
  move
  googleDriveImport
  datacite
  buildJournalSite
  buildSite
  createPub
}

Enum ActionRunStatus {
  scheduled
  pending
  success
  failure
}

Enum AutomationEvent {
  pubEnteredStage
  pubLeftStage
  pubInStageForDuration
  automationSucceeded
  automationFailed
  webhook
  manual
}

Enum ConditionEvaluationTiming {
  onTrigger
  onExecution
  both
}

Enum AutomationConditionBlockType {
  AND
  OR
  NOT
}

Enum AutomationConditionType {
  jsonata
}

Enum FormAccessType {
  private
  public
}

Enum StructuralFormElement {
  h2
  h3
  p
  hr
}

Enum ElementType {
  pubfield
  structural
  button
}

Enum InputComponent {
  textArea
  textInput
  datePicker
  checkbox
  fileUpload
  memberSelect
  confidenceInterval
  checkboxGroup
  radioGroup
  richText
  selectDropdown
  multivalueInput
  relationBlock
  colorPicker
}

Enum ApiAccessType {
  read
  write
  archive
}

Enum ApiAccessScope {
  community
  pub
  stage
  member
  pubType
  form
}

Enum InviteStatus {
  created
  pending
  accepted
  completed
  rejected
  revoked
}

Ref: member_groups.communityId > communities.id [delete: Cascade]

Ref: community_memberships.communityId > communities.id [delete: Cascade]

Ref: community_memberships.userId > users.id [delete: Cascade]

Ref: community_memberships.memberGroupId > member_groups.id [delete: Cascade]

Ref: community_memberships.formId > forms.id [delete: Cascade]

Ref: pub_memberships.pubId > pubs.id [delete: Cascade]

Ref: pub_memberships.userId > users.id [delete: Cascade]

Ref: pub_memberships.memberGroupId > member_groups.id [delete: Cascade]

Ref: pub_memberships.formId > forms.id [delete: Cascade]

Ref: stage_memberships.stageId > stages.id [delete: Cascade]

Ref: stage_memberships.userId > users.id [delete: Cascade]

Ref: stage_memberships.memberGroupId > member_groups.id [delete: Cascade]

Ref: stage_memberships.formId > forms.id [delete: Cascade]

Ref: invites_history.userId > users.id

Ref: invites_history.apiAccessTokenId > api_access_tokens.id

Ref: invites_history.actionRunId > action_runs.id

Ref: pub_values_history.userId > users.id

Ref: pub_values_history.apiAccessTokenId > api_access_tokens.id

Ref: pub_values_history.actionRunId > action_runs.id

Ref: sessions.userId > users.id

Ref: auth_tokens.userId > users.id

Ref: pubs.pubTypeId > pub_types.id

Ref: pubs.communityId > communities.id [delete: Cascade]

Ref: pub_fields.pubFieldSchemaId > PubFieldSchema.id

Ref: pub_fields.communityId > communities.id [delete: Cascade]

Ref: pub_values.fieldId > pub_fields.id

Ref: pub_values.pubId > pubs.id [delete: Cascade]

Ref: pub_values.relatedPubId > pubs.id [delete: Cascade]

Ref: pub_types.communityId > communities.id [delete: Cascade]

Ref: _PubFieldToPubType.A > pub_fields.id [delete: Cascade]

Ref: _PubFieldToPubType.B > pub_types.id [delete: Cascade]

Ref: stages.communityId > communities.id [delete: Cascade]

Ref: PubsInStages.pubId > pubs.id [delete: Cascade]

Ref: PubsInStages.stageId > stages.id [delete: Cascade]

Ref: move_constraint.stageId > stages.id [delete: Cascade]

Ref: move_constraint.destinationId > stages.id [delete: Cascade]

Ref: action_instances.automationId > automations.id [delete: Cascade]

Ref: action_config_defaults.communityId > communities.id [delete: Cascade]

Ref: automation_runs.automationId > automations.id [delete: Cascade]

Ref: automation_runs.sourceUserId > users.id [delete: Cascade]

Ref: automation_runs.inputPubId > pubs.id [delete: Cascade]

Ref: automation_runs.sourceAutomationRunId - automation_runs.id [delete: Set Null]

Ref: action_runs.actionInstanceId > action_instances.id [delete: Set Null]

Ref: action_runs.automationRunId > automation_runs.id

Ref: action_runs.pubId > pubs.id

Ref: action_runs.userId > users.id [delete: Set Null]

Ref: automations.stageId > stages.id [delete: Cascade]

Ref: automations.communityId > communities.id [delete: Cascade]

Ref: automation_triggers.automationId > automations.id [delete: Cascade]

Ref: automation_triggers.sourceAutomationId > automations.id [delete: Cascade]

Ref: automation_condition_blocks.automationConditionBlockId - automation_condition_blocks.id [delete: Cascade]

Ref: automation_condition_blocks.automationId > automations.id [delete: Cascade]

Ref: automation_conditions.automationConditionBlockId > automation_condition_blocks.id [delete: Cascade]

Ref: forms.communityId > communities.id [delete: Cascade]

Ref: forms.pubTypeId > pub_types.id

Ref: form_elements.fieldId > pub_fields.id [delete: Cascade]

Ref: form_elements.formId > forms.id [delete: Cascade]

Ref: form_elements.stageId > stages.id [delete: Set Null]

Ref: api_access_tokens.communityId > communities.id [delete: Cascade]

Ref: api_access_tokens.issuedById > users.id [delete: Set Null]

Ref: api_access_logs.accessTokenId > api_access_tokens.id [delete: Set Null]

Ref: api_access_permissions.apiAccessTokenId > api_access_tokens.id [delete: Cascade]

Ref: invites.userId > users.id [delete: Cascade]

Ref: invites.communityId > communities.id [delete: Cascade]

Ref: invites.pubId > pubs.id [delete: Set Null]

Ref: invites.stageId > stages.id [delete: Set Null]

Ref: invites.invitedByUserId > users.id [delete: Cascade]

Ref: invites.invitedByActionRunId > action_runs.id [delete: Set Null]

Ref: invite_forms.inviteId > invites.id [delete: Cascade]

Ref: invite_forms.formId > forms.id [delete: Cascade]